<svg xmlns="http://www.w3.org/2000/svg" viewBox="0 0 64 64" fill="none">
  <defs>
    <linearGradient id="emeraldGradient" x1="0%" y1="0%" x2="100%" y2="100%">
      <stop offset="0%" stop-color="#10B981"/>
      <stop offset="100%" stop-color="#059669"/>
    </linearGradient>
    <linearGradient id="bgGradient" x1="0%" y1="0%" x2="100%" y2="100%">
      <stop offset="0%" stop-color="#18181B"/>
      <stop offset="100%" stop-color="#09090B"/>
    </linearGradient>
  </defs>
  
  <rect width="64" height="64" rx="14" fill="url(#bgGradient)"/>
  
  <path d="M14 30C14 21.716 20.716 15 29 15H35C43.284 15 50 21.716 50 30C50 38.284 43.284 45 35 45H30L23 52V45.5C17.477 43.79 14 37.37 14 30Z" 
        fill="none" 
        stroke="#059669" 
        stroke-width="1.5" 
        stroke-opacity="0.25"/>
  
  <path d="M17 30C17 23.373 22.373 18 29 18H35C41.627 18 47 23.373 47 30C47 36.627 41.627 42 35 42H29L24 47V42.3C19.858 40.79 17 35.85 17 30Z" 
        fill="none" 
        stroke="#059669" 
        stroke-width="1.5" 
        stroke-opacity="0.4"/>
  
  <path d="M20 30C20 24.477 24.477 20 30 20H34C39.523 20 44 24.477 44 30C44 35.523 39.523 40 34 40H29L25 44V40C22.239 40 20 35.523 20 30Z" 
        fill="url(#emeraldGradient)"/>
  
  <g transform="translate(28, 26)">
    <rect x="0" y="2" width="2.5" height="4" rx="1.25" fill="#FAFAFA"/>
    <rect x="5" y="0" width="2.5" height="8" rx="1.25" fill="#FAFAFA"/>
    <rect x="10" y="2" width="2.5" height="4" rx="1.25" fill="#FAFAFA"/>
  </g>
</svg>
